<svg xmlns="http://www.w3.org/2000/svg" xmlns:xlink="http://www.w3.org/1999/xlink" viewBox="0 0 180 30"><defs><clipPath id="clip-path" transform="translate(0.09 0.03)"><rect width="180" height="30" style="fill:none"/></clipPath><symbol id="_8662a44f" data-name="8662a44f" viewBox="0 0 180 30"><path d="M174.58,15.39c.25,1.9-.52,3.18-3.2,3.18H164s-.37.08-.42-.21-.8-4.47-.91-5.14,0-.58.55-.58h7.31c1.94,0,3.77.5,4.06,2.75m-10.74,7c-.1-.67.09-.78.61-.78h7.21a2.64,2.64,0,0,1,2.89,2.44,2,2,0,0,1-2.27,2.19h-7.39s-.36,0-.41-.21-.53-3-.64-3.64m12.58-2c1.46-.76,4.24-2.35,3.44-6a6,6,0,0,0-6.2-5c-2.58,0-13-.09-15.1-.09s-2,.63-1.86,1.47,3,16.33,3.23,17.76S161.26,30,162.54,30l12.16,0c2.81,0,5-1.32,5-4.83,0-3.06-3-4.24-3.28-4.36s-.26-.22,0-.35m-41-9.66c-.18-1.15.5-1.37,1.3-1.37s15.25-.06,16.44,0,1.27.32,1.39.95c.05.27.18.8.41,2.15,0,0,.16.78-.51.78H141.5c-.37,0-.21.36-.2.38.29,1.72.6,3.51.64,3.79.09.54.21.6.75.6l10.21,0c.83,0,1,.21,1.16.75a23.24,23.24,0,0,1,.44,2.69c.06.66-.12.75-.68.75l-10.48,0c-.56,0-.51.12-.45.72s.23,1.17.38,2.13.45.84,1.1.84l11.72,0c1.18,0,1.24.3,1.39,1s.26,1.33.36,2-.15,1-.89,1h-17c-.89,0-1.27-.12-1.42-.9s-2.9-16.83-3.1-18.15M118.61,9.54c.49,0,1.52,0,3,0s2-.16,1.41-.53A45.36,45.36,0,0,0,112.41,3.7C101.31-.12,88.22,0,88.22,0c9.58.32,13.84,1.64,18.84,3.61a31.11,31.11,0,0,1,8.61,5.16c1.07.77.73.77,2.94.77M132,29.79c3.8,0-1.45,0,.4,0,2.5,0,3.78,0,3.7-.58a33.45,33.45,0,0,0-2.46-8.29,34.83,34.83,0,0,0-5.28-7.55c-.76-.84-.5-.92-2.75-1s-.24,0-3.19,0-3,0-2.38.82a37.89,37.89,0,0,1,4.42,7.85,40.86,40.86,0,0,1,1.84,7.83c.06,1.08,2.13.85,5.7.88M106.62,9.54c.29,0,2.83,0,3.83,0s1.35-.16,1-.53a28.44,28.44,0,0,0-7.11-5.29C96.87-.12,88.12,0,88.12,0c5.78.32,8.5,1.64,11.52,3.61a20.47,20.47,0,0,1,5.17,5.16c.64.77.47.77,1.81.77m7.9,20.25c2.3,0,1.8,0,3,0,1.67,0,2.53,0,2.47-.58a45.41,45.41,0,0,0-1.64-8.29,38,38,0,0,0-3.52-7.55c-.5-.84-.33-.92-1.83-1s-2.34,0-4.12,0-1.81,0-1.44.82a64.34,64.34,0,0,1,2.67,7.85,51.32,51.32,0,0,1,1.11,7.83c0,1.08,1.12.85,3.27.88M95.88,9.54c.12,0,3.46,0,4,0s.78-.16.56-.53A21.87,21.87,0,0,0,96.59,3.7,13,13,0,0,0,88,0c2.31.32,3.4,1.64,4.61,3.61a23.5,23.5,0,0,1,2.11,5.16c.26.77.65.77,1.19.77m2.8,20.25c-.86,0-1.49.06-1.46-1a71.75,71.75,0,0,0-.44-7.69c-.33-2.73-.92-7-1.07-7.85s.15-.79.86-.82,3.77,0,4.57,0,.86.09,1.13.93a62.3,62.3,0,0,1,1.84,7.55c.59,3.5.83,7.57.86,8.17s-.42.6-1.31.66-4.06.06-5,0m-27.38.06c-.5,0-.92-.09-1-.63s-.21-1-.38-2,0-1.19.74-1.19h7.95c.59,0,.71.06.62-.54s-2.43-13.87-2.61-14.95.24-1.14.92-1.14c.86,0,2.19,0,3.17,0s1,.33,1.19,1S84.44,25,84.53,25.51s.24.51.5.51h8.43c.47,0,.8-.06,1,.6a20.45,20.45,0,0,1,.41,2.45c0,.42.12.78-.77.78H71.3m-3.84-.14-14.87,0c-1.93,0-6.05.08-6.56-5.87s3.88-5.87,5.14-5.87H61.73c.75,0,2-.08,2-1.24v-1.6a1.7,1.7,0,0,0-1.82-1.87H45.36c-.71,0-1.23.08-1.39-.56s-.35-2-.43-2.44-.2-.92.79-.92h16c3,0,6.32.32,7,4.36s.43,8.26-5,8.26H51.76c-.79,0-1.66.24-1.66,1.8s.75,2.08,2.1,2.08H66.61c1.15,0,1.17.12,1.37,1.27s.2,1.48.28,2-.24.6-.8.6M33.39,18c.17,0,.23.09.16.3S31,25.53,31,25.64s-.06.16-.18,0l-5.27-7.31c-.1-.15-.17-.3,0-.3l7.83,0m9.11-7.71c.21-.57.39-.78-.62-.87a35.65,35.65,0,0,0-4,0c-.71.06-1.3.06-1.6.9-.42,1.21-.84,2.42-1.24,3.63-.12.36-.15.6-.63.6H23.64a1.22,1.22,0,0,1-1.16-.45c-.33-.42-2.49-3.54-2.82-4a2,2,0,0,0-1.57-.72,28.42,28.42,0,0,0-3.62,0c-.37.11-.64.08,0,.92.41.55,13,18.18,13.46,18.72a1.66,1.66,0,0,0,1.63.72c.89,0,1.18,0,1.78,0s1.78-.09,2.31-.09.74,0,1.25-1.26,7.41-17.64,7.62-18.21M.06,10.41c.24,1.32,3,17.73,3.17,18.51s.53.9,1.42.9H21.2c.75,0,1-.15.89-1s-.21-1.34-.35-2-.21-1-1.4-1l-11.24,0c-.65,0-.95.12-1.1-.84s-.53-3-.59-3.57-.12-.71.45-.71l8,0c.57,0,.75-.09.69-.75a23,23,0,0,0-.45-2.7c-.15-.54-.32-.75-1.16-.75l-7.77,0c-.53,0-.65-.06-.74-.6s-.89-5-1-5.66-.2-.9-1.39-.95-2.43,0-3.23,0-.92.21-.77,1" style="fill:#fdc400;fill-rule:evenodd"/></symbol></defs><g id="Layer_2" data-name="Layer 2"><g id="Layer_1-2" data-name="Layer 1"><g style="clip-path:url(#clip-path)"><use width="180" height="30" transform="matrix(1, 0, 0, -1, 0, 30)" xlink:href="#_8662a44f"/></g></g></g></svg>